<svg width="192" height="19" viewBox="0 0 192 19" fill="none" xmlns="http://www.w3.org/2000/svg">
<path d="M13.232 1.2H0.032V18H4.352V13.512H13.232C17.048 13.512 19.664 11.112 19.664 7.368C19.664 3.624 17.048 1.2 13.232 1.2ZM12.032 9.888H4.352V4.824H12.032C13.328 4.824 15.344 4.824 15.344 7.368C15.344 9.888 13.328 9.888 12.032 9.888ZM31.3989 18.24C38.7669 18.24 41.9589 15.144 41.9589 9.576C41.9589 4.032 38.7669 0.959999 31.3989 0.959999C24.0069 0.959999 20.8389 4.008 20.8389 9.576C20.8389 15.168 24.0069 18.24 31.3989 18.24ZM31.3989 14.616C26.9109 14.616 25.1589 13.032 25.1589 9.576C25.1589 6.144 26.8869 4.584 31.3989 4.584C35.9109 4.584 37.6389 6.168 37.6389 9.576C37.6389 13.008 35.8869 14.616 31.3989 14.616ZM170.464 4.632V1.2H152.704V18H170.464V14.568H157.024V11.16H170.464V8.04H157.024V4.632H170.464ZM191.672 7.368C191.672 3.624 189.056 1.2 185.24 1.2H172.04V18H176.36V13.512H183.32L186.032 18H191.12L188.024 13.008C190.28 12.12 191.672 10.104 191.672 7.368ZM176.36 4.824H184.04C185.336 4.824 187.352 4.824 187.352 7.368C187.352 9.888 185.336 9.888 184.04 9.888H176.36V4.824Z" fill="#E9E9E9"/>
<path d="M73.9578 1.2L69.0138 14.424L63.7338 1.2H58.4298L53.1738 14.4L48.2058 1.2H43.5498L50.1738 18H56.1258L61.0938 5.352L66.0378 18H72.0138L78.6378 1.2H73.9578ZM110.075 1.2L105.131 14.424L99.851 1.2H94.547L89.291 14.4L84.323 1.2H79.667L86.291 18H92.243L97.211 5.352L102.155 18H108.131L114.755 1.2H110.075ZM146.192 1.2L141.248 14.424L135.968 1.2H130.664L125.408 14.4L120.44 1.2H115.784L122.408 18H128.36L133.328 5.352L138.272 18H144.248L150.872 1.2H146.192Z" fill="#9D0808"/>
</svg>
